<?xml version="1.0" encoding="UTF-8"?>
<svg id="Layer_2" data-name="Layer 2" xmlns="http://www.w3.org/2000/svg" viewBox="0 0 90.91 101.16">
  <defs>
    <style>
      .cls-1 {
        fill: #fdd023;
      }

      .cls-1, .cls-2 {
        stroke-width: 0px;
      }

      .cls-2 {
        fill: #461d7c;
      }
    </style>
  </defs>
  <g id="Object">
    <g>
      <g>
        <circle class="cls-2" cx="28.89" cy="35.59" r="8.41" transform="translate(-2.45 2.14) rotate(-4.07)"/>
        <path class="cls-2" d="m38.37,47.55h-18.95c-4.2,0-6.93,5.7-5.05,10.55l10.69,27.59c1.45,3.74,6.23,3.74,7.68,0l10.69-27.59c1.88-4.85-.85-10.55-5.05-10.55Z"/>
      </g>
      <g>
        <circle class="cls-2" cx="62.72" cy="35.59" r="8.41" transform="translate(-2.36 4.54) rotate(-4.07)"/>
        <path class="cls-2" d="m72.2,47.55h-18.95c-4.2,0-6.93,5.7-5.05,10.55l10.69,27.59c1.45,3.74,6.23,3.74,7.68,0l10.69-27.59c1.88-4.85-.85-10.55-5.05-10.55Z"/>
      </g>
      <polygon class="cls-2" points="90.91 101.16 0 101.16 0 13.44 6.38 13.44 6.38 94.78 84.53 94.78 84.53 13.44 90.91 13.44 90.91 101.16"/>
      <polygon class="cls-1" points="18.12 20.67 13.61 16.16 29.28 .49 44.18 15.39 39.67 19.9 29.28 9.51 18.12 20.67"/>
      <polygon class="cls-1" points="62.34 20.18 47.44 5.28 51.95 .77 62.34 11.16 73.5 0 78.01 4.51 62.34 20.18"/>
    </g>
  </g>
</svg>