<?xml version="1.0" encoding="UTF-8"?>
<svg id="Layer_2" data-name="Layer 2" xmlns="http://www.w3.org/2000/svg" viewBox="0 0 4155 3771">
  <defs>
    <style>
      .cls-1, .cls-2 {
        stroke: #000;
        stroke-miterlimit: 10;
        stroke-width: 5px;
      }

      .cls-3 {
        font-size: 45.91px;
      }

      .cls-3, .cls-4, .cls-5, .cls-6 {
        font-family: ProximaNova-Medium, 'Proxima Nova';
        font-weight: 500;
      }

      .cls-7 {
        fill: #fdd023;
      }

      .cls-7, .cls-8, .cls-9 {
        stroke-width: 0px;
      }

      .cls-8 {
        fill: #461d7c;
      }

      .cls-4 {
        font-size: 39.87px;
      }

      .cls-9 {
        fill: #ffc738;
      }

      .cls-2 {
        fill: none;
      }

      .cls-5 {
        font-size: 39.04px;
      }

      .cls-6 {
        font-size: 44px;
      }

      .cls-10 {
        font-family: ProximaNova-Semibold, 'Proxima Nova';
        font-size: 70.13px;
        font-weight: 600;
      }
    </style>
  </defs>
  <text class="cls-6" transform="translate(473.76 797)"><tspan x="0" y="0">2150</tspan></text>
  <polygon class="cls-2" points="393 686 393 3280 469 3280 469 3629 959 3629 959 3519 1034 3519 1034 3465 1225 3465 1225 3516 1853 3516 1853 3406 1979 3406 1979 3417 2148 3417 2148 3395 2934 3395 2934 3519 3564 3519 3564 2944 3539 2944 3539 2866 3564 2866 3564 2302 3617 2302 3617 2069 3565.5 2069 3565.5 1634.5 3440.5 1634.5 3440.5 791.5 3476.5 791.5 3476.5 707.5 3527.5 707.5 3527.5 496.5 3329 496.5 3329 174.5 1459 174.5 1459 599.5 1309.5 599.5 1309.5 650.5 1031.5 650.5 1031.5 522.5 763.5 522.5 763.5 686.5 393 686"/>
  <rect class="cls-2" x="1925.67" y="2166.5" width="305.83" height="517.17"/>
  <line class="cls-2" x1="567.67" y1="3546.5" x2="567.67" y2="3628"/>
  <polyline class="cls-2" points="648 685.34 648 2392 393 2392"/>
  <polyline class="cls-2" points="393 2548 648 2548 648 3278.5 469 3278.5"/>
  <line class="cls-2" x1="393" y1="865" x2="648" y2="865"/>
  <line class="cls-2" x1="393" y1="1025" x2="648" y2="1025"/>
  <line class="cls-2" x1="393" y1="1194" x2="648" y2="1194"/>
  <line class="cls-2" x1="393" y1="1351" x2="648" y2="1351"/>
  <line class="cls-2" x1="393" y1="1516" x2="648" y2="1516"/>
  <line class="cls-2" x1="393" y1="1674" x2="648" y2="1674"/>
  <line class="cls-2" x1="393" y1="2230" x2="648" y2="2230"/>
  <line class="cls-2" x1="393" y1="2786" x2="648" y2="2786"/>
  <line class="cls-2" x1="393" y1="2949" x2="648" y2="2949"/>
  <line class="cls-2" x1="393" y1="3113" x2="648" y2="3113"/>
  <polyline class="cls-2" points="469 3512.67 567.67 3512.67 567.67 3546.5 874.5 3546.5 874.5 3501.67"/>
  <polyline class="cls-2" points="959 3518 959 3501.67 708.33 3501.67 708.33 2942 1038 2942"/>
  <line class="cls-2" x1="1035.44" y1="2942" x2="1035.44" y2="3464"/>
  <line class="cls-2" x1="709.33" y1="3103.67" x2="1036.44" y2="3103.67"/>
  <line class="cls-2" x1="708.33" y1="3265" x2="1035.44" y2="3265"/>
  <line class="cls-2" x1="713.22" y1="3546.5" x2="713.22" y2="3628"/>
  <line class="cls-2" x1="633.22" y1="3546.5" x2="633.22" y2="3628"/>
  <line class="cls-2" x1="795.22" y1="3546.5" x2="795.22" y2="3628"/>
  <line class="cls-2" x1="874.22" y1="3546.5" x2="874.22" y2="3628"/>
  <polyline class="cls-2" points="1225 3464 1225 2942 1849.67 2942 1849.67 3230 1737.67 3230 1737.67 3515"/>
  <polyline class="cls-2" points="1225 3389 1651.67 3389 1737.67 3389"/>
  <line class="cls-2" x1="1649.67" y1="3515" x2="1649.67" y2="3389"/>
  <line class="cls-2" x1="1559.67" y1="3389" x2="1559.67" y2="3515"/>
  <line class="cls-2" x1="1469" y1="3389" x2="1469" y2="3515"/>
  <line class="cls-2" x1="1378.5" y1="3386.5" x2="1378.5" y2="3515"/>
  <polyline class="cls-2" points="1225 3180.33 1334.5 3180.33 1334.5 3307.67 1334.5 3389"/>
  <line class="cls-2" x1="1225" y1="3305.67" x2="1334.5" y2="3305.67"/>
  <polyline class="cls-2" points="1579 2942 1579 3023 1579 3180.33 1390.33 3180.33 1390.33 3333.5 1692.33 3333.5 1692.33 3021.67 1692.33 2942"/>
  <line class="cls-2" x1="1579" y1="3023" x2="1692.33" y2="3023"/>
  <line class="cls-2" x1="1692.33" y1="3097" x2="1579" y2="3097"/>
  <line class="cls-2" x1="1579" y1="3180.33" x2="1692.33" y2="3180.33"/>
  <line class="cls-2" x1="1692.33" y1="3254.33" x2="1390.33" y2="3254.33"/>
  <line class="cls-2" x1="1568.33" y1="3180.33" x2="1568.33" y2="3254.33"/>
  <line class="cls-2" x1="1583.67" y1="3254.33" x2="1583.67" y2="3333.5"/>
  <line class="cls-2" x1="1488.33" y1="3254.33" x2="1488.33" y2="3333.5"/>
  <polyline class="cls-2" points="1849.67 3069 1737.67 3069 1737.67 3230"/>
  <line class="cls-2" x1="1849.67" y1="3145" x2="1737.67" y2="3145"/>
  <polyline class="cls-2" points="1853 3405 1853 3293.92 1737.67 3293.92"/>
  <polyline class="cls-2" points="1929.5 3402.5 1929.5 2942 2861 2942 2861 3394"/>
  <polyline class="cls-2" points="2109.22 3416 2109.22 3256.5 2238.5 3256.5 2238.5 3116.78 2074.56 3116.78 2074.56 2942"/>
  <line class="cls-2" x1="2002.56" y1="2942" x2="2002.56" y2="3025.67"/>
  <line class="cls-2" x1="1929.5" y1="3025.67" x2="2074.56" y2="3025.67"/>
  <line class="cls-2" x1="2074.56" y1="3116.78" x2="1929.5" y2="3116.78"/>
  <line class="cls-2" x1="2109.22" y1="3285.22" x2="1929.5" y2="3285.22"/>
  <line class="cls-2" x1="2005" y1="3287" x2="2005" y2="3416"/>
  <polyline class="cls-2" points="1929.5 3228.5 2109.22 3228.5 2109.22 3256.5"/>
  <line class="cls-2" x1="2002.03" y1="3115.44" x2="2002.03" y2="3228.5"/>
  <line class="cls-2" x1="2080.78" y1="3116.78" x2="2080.78" y2="3228.5"/>
  <polyline class="cls-2" points="2295.89 2942 2295.89 3256.5 2561.67 3256.5 2561.67 2942"/>
  <polyline class="cls-2" points="2608.78 2942 2608.78 3256.5 2861 3256.5"/>
  <polyline class="cls-2" points="2712.78 2942 2712.78 3185.22 2712.78 3256.5"/>
  <line class="cls-2" x1="2608.78" y1="3183.89" x2="2712.78" y2="3183.89"/>
  <line class="cls-2" x1="2712.78" y1="3101.67" x2="2608.78" y2="3101.67"/>
  <line class="cls-2" x1="2608.78" y1="3019" x2="2712.78" y2="3019"/>
  <line class="cls-2" x1="2712.78" y1="3026.11" x2="2861" y2="3026.11"/>
  <line class="cls-2" x1="2786.89" y1="2942" x2="2786.89" y2="3026.11"/>
  <line class="cls-2" x1="2712.78" y1="3117.22" x2="2861" y2="3117.22"/>
  <polyline class="cls-2" points="2214.67 3256.5 2214.67 3306.67 2214.67 3394"/>
  <polyline class="cls-2" points="2862.5 3305.5 2306 3305.5 2214.67 3305.5"/>
  <line class="cls-2" x1="2304.67" y1="3394" x2="2304.67" y2="3305.5"/>
  <line class="cls-2" x1="2392.67" y1="3305.5" x2="2392.67" y2="3394"/>
  <line class="cls-2" x1="2480.67" y1="3305.5" x2="2480.67" y2="3394"/>
  <line class="cls-2" x1="2572.33" y1="3305.5" x2="2572.33" y2="3394"/>
  <line class="cls-2" x1="2664.33" y1="3305.5" x2="2664.33" y2="3394"/>
  <line class="cls-2" x1="2763.67" y1="3305.5" x2="2763.67" y2="3394"/>
  <rect class="cls-2" x="1395.67" y="2070.5" width="454" height="786.5"/>
  <rect class="cls-2" x="708.33" y="2070.5" width="327.11" height="786.5"/>
  <rect class="cls-2" x="708.33" y="787" width="327.11" height="1209.33"/>
  <polygon class="cls-2" points="1345.5 1636.5 1224.33 1636.5 1224.33 1996.33 1849.67 1996.33 1849.67 1481.67 1496.33 1481.67 1496.33 787 1344.33 787 1345.5 1636.5"/>
  <rect class="cls-2" x="1556.33" y="787" width="293.33" height="636"/>
  <polyline class="cls-2" points="1459 452.33 1556.33 452.33 1556.33 708.33 1849.67 708.33 1849.67 469.67 1923.5 469.67 1923.5 708.33 2323 708.33 2323 413.67 2391 413.67 2391 708.33 2865.67 708.33 2865.67 469.5 2937.5 469.5 2937.5 708.33 3156.33 708.33 3156.33 599 3096.5 599 3096.5 388.5 3329 388.5"/>
  <polygon class="cls-2" points="2189.5 787.5 1925.67 787.5 1925.67 1996.33 2305.67 1996.33 2305.67 1416.33 2193.5 1416.33 2189.5 787.5"/>
  <polyline class="cls-2" points="2189.96 860.5 2598 860.5 2598 787 2863 787 2863 1996.33 2482.5 1996.33 2482.5 1987.5 2533 1987.5 2533 1839 2482.5 1839 2482.5 1409.5 2596.5 1409.5 2598 860.5"/>
  <rect class="cls-2" x="2554" y="2166.5" width="309" height="517.17"/>
  <polyline class="cls-2" points="2934 3395 2934 3292.5 3564 3292.5"/>
  <line class="cls-2" x1="3207.33" y1="3519" x2="3207.33" y2="3292.5"/>
  <polyline class="cls-2" points="3539 2944 3325.5 2944 3325.5 3292.5"/>
  <line class="cls-2" x1="3564" y1="3082.33" x2="3325.5" y2="3082.33"/>
  <rect class="cls-2" x="2937.67" y="2942" width="330.83" height="294.5"/>
  <polyline class="cls-2" points="3539 2866 3325.5 2866 3325.5 2068.5 3566.78 2068.5"/>
  <polygon class="cls-2" points="3268.5 2861 3268.5 2070.5 2937.67 2070.5 2937.67 2502 3039.5 2502 3039.5 2648.5 2937.67 2648.5 2937.67 2861 3268.5 2861"/>
  <polyline class="cls-2" points="3440.5 791.5 2939.5 791.5 2939.5 2003 3565.5 2003"/>
  <line class="cls-2" x1="708.33" y1="1019" x2="1035.44" y2="1019"/>
  <line class="cls-2" x1="1035.44" y1="1267" x2="708.33" y2="1267"/>
  <line class="cls-2" x1="708.33" y1="1503.67" x2="1035.44" y2="1503.67"/>
  <line class="cls-2" x1="708.33" y1="1677" x2="1035.44" y2="1677"/>
  <line class="cls-2" x1="886.33" y1="1996.33" x2="886.33" y2="1677"/>
  <line class="cls-2" x1="959" y1="1996.33" x2="959" y2="1677"/>
  <line class="cls-2" x1="1035.44" y1="1830.33" x2="959" y2="1830.33"/>
  <line class="cls-2" x1="959" y1="1885.5" x2="886.33" y2="1885.5"/>
  <line class="cls-2" x1="959" y1="1930.33" x2="886.33" y2="1930.33"/>
  <polyline class="cls-2" points="1345.5 1636.5 1470.5 1636.5 1470.5 1996.33"/>
  <line class="cls-2" x1="1849.67" y1="1789.67" x2="1470.5" y2="1789.67"/>
  <line class="cls-2" x1="1644.33" y1="1996.33" x2="1644.33" y2="1481.67"/>
  <line class="cls-2" x1="1470.5" y1="1636.5" x2="1849.67" y2="1636.5"/>
  <line class="cls-2" x1="1496.33" y1="1481.67" x2="1343" y2="1481.67"/>
  <line class="cls-2" x1="1344.97" y1="1249.33" x2="1496.33" y2="1249.33"/>
  <line class="cls-2" x1="1344.65" y1="1016" x2="1496.33" y2="1016"/>
  <line class="cls-2" x1="1556.33" y1="1256.33" x2="1849.67" y2="1256.33"/>
  <line class="cls-2" x1="1703" y1="1253.67" x2="1703" y2="787.5"/>
  <line class="cls-2" x1="1556.33" y1="1016" x2="1849.67" y2="1016"/>
  <line class="cls-2" x1="1556.33" y1="1190.33" x2="1703" y2="1190.33"/>
  <line class="cls-2" x1="1925.67" y1="1016" x2="2190.95" y2="1016"/>
  <line class="cls-2" x1="1925.67" y1="1253.67" x2="2192.48" y2="1253.67"/>
  <line class="cls-2" x1="2193.5" y1="1416.33" x2="1925.67" y2="1416.33"/>
  <line class="cls-2" x1="1925.67" y1="1630.33" x2="2305.67" y2="1630.33"/>
  <line class="cls-2" x1="2305.67" y1="1827.67" x2="1925.67" y2="1827.67"/>
  <line class="cls-2" x1="2213.67" y1="1996.33" x2="2213.67" y2="1827.67"/>
  <line class="cls-2" x1="2213.67" y1="1912" x2="2040.5" y2="1912"/>
  <line class="cls-2" x1="2040.5" y1="1827.67" x2="2040.5" y2="1996.33"/>
  <line class="cls-2" x1="2597.56" y1="1020.33" x2="2863" y2="1020.33"/>
  <line class="cls-2" x1="2597.56" y1="1253.67" x2="2863" y2="1253.67"/>
  <line class="cls-2" x1="2596.5" y1="1409.5" x2="2863" y2="1409.5"/>
  <line class="cls-2" x1="2864" y1="1630.33" x2="2481.5" y2="1630.33"/>
  <polyline class="cls-2" points="2533 1839 2591 1839 2863 1839"/>
  <line class="cls-2" x1="2592.11" y1="1996.33" x2="2592.11" y2="1839"/>
  <polyline class="cls-2" points="2592.11 1913.89 2746 1913.89 2746 1997.67 2746 1839"/>
  <line class="cls-2" x1="1595.67" y1="2070.5" x2="1595.67" y2="2429"/>
  <line class="cls-2" x1="1395.67" y1="2429" x2="1849.67" y2="2429"/>
  <line class="cls-2" x1="1395.67" y1="2527.67" x2="1849.67" y2="2527.67"/>
  <line class="cls-2" x1="1697.67" y1="2429" x2="1697.67" y2="2527.67"/>
  <line class="cls-2" x1="1545.67" y1="2429" x2="1545.67" y2="2527.67"/>
  <line class="cls-2" x1="1499" y1="2527.67" x2="1499" y2="2857"/>
  <line class="cls-2" x1="1737.67" y1="2527.67" x2="1737.67" y2="2857"/>
  <line class="cls-2" x1="1849.67" y1="2762.33" x2="1737.67" y2="2762.33"/>
  <line class="cls-2" x1="1737.67" y1="2680.33" x2="1849.67" y2="2680.33"/>
  <line class="cls-2" x1="1849.67" y1="2602.33" x2="1737.67" y2="2602.33"/>
  <line class="cls-2" x1="1499" y1="2602.33" x2="1395.67" y2="2602.33"/>
  <line class="cls-2" x1="1395.67" y1="2680.33" x2="1499" y2="2680.33"/>
  <line class="cls-2" x1="1395.67" y1="2753" x2="1499" y2="2753"/>
  <line class="cls-2" x1="1925.67" y1="2343.89" x2="2231.5" y2="2343.89"/>
  <line class="cls-2" x1="2863" y1="2501" x2="2554" y2="2501"/>
  <polyline class="cls-2" points="2863 2343.89 2692.5 2343.89 2692.5 2501"/>
  <line class="cls-2" x1="2937.67" y1="2291.67" x2="3268.5" y2="2291.67"/>
  <line class="cls-2" x1="3039.5" y1="2567.67" x2="3268.5" y2="2567.67"/>
  <line class="cls-2" x1="3039.5" y1="2648.5" x2="3039.5" y2="2861"/>
  <line class="cls-2" x1="2937.67" y1="2749.67" x2="3039.5" y2="2749.67"/>
  <line class="cls-2" x1="3325.5" y1="2715.67" x2="3564" y2="2715.67"/>
  <line class="cls-2" x1="3564" y1="2581" x2="3325.5" y2="2581"/>
  <line class="cls-2" x1="3325.5" y1="2447.67" x2="3564" y2="2447.67"/>
  <line class="cls-2" x1="3564" y1="2302" x2="3325.5" y2="2302"/>
  <line class="cls-2" x1="3488.33" y1="2068.5" x2="3488.33" y2="2302"/>
  <line class="cls-2" x1="2939.5" y1="1630.33" x2="3440.5" y2="1630.33"/>
  <polyline class="cls-2" points="3205 2003 3205 1816.67 3205 1630.33"/>
  <line class="cls-2" x1="2939.5" y1="1816.67" x2="3205" y2="1816.67"/>
  <line class="cls-2" x1="2939.5" y1="1423.67" x2="3440.5" y2="1423.67"/>
  <line class="cls-2" x1="3339.67" y1="1630.33" x2="3339.67" y2="1423.67"/>
  <line class="cls-2" x1="3035.67" y1="1423.67" x2="3035.67" y2="1630.33"/>
  <line class="cls-2" x1="2939.5" y1="1024.33" x2="3440.5" y2="1024.33"/>
  <line class="cls-2" x1="3339.67" y1="791.5" x2="3339.67" y2="1024.33"/>
  <line class="cls-2" x1="3035.67" y1="791.5" x2="3035.67" y2="1024.33"/>
  <line class="cls-2" x1="2937.5" y1="469.5" x2="3096.5" y2="469.5"/>
  <polyline class="cls-2" points="2391 413.67 2865.67 413.67 2865.67 469.5"/>
  <polyline class="cls-2" points="2323 413.67 1923.5 413.67 1923.5 469.67"/>
  <line class="cls-2" x1="1691" y1="708.33" x2="1691" y2="174.5"/>
  <line class="cls-2" x1="1556.33" y1="452.33" x2="1691" y2="452.33"/>
  <line class="cls-2" x1="1849.67" y1="469.67" x2="1691" y2="469.67"/>
  <line class="cls-2" x1="2005" y1="174.5" x2="2005" y2="413.67"/>
  <line class="cls-2" x1="2161.67" y1="413.67" x2="2161.67" y2="173.33"/>
  <line class="cls-2" x1="2624.33" y1="413.67" x2="2624.33" y2="174.5"/>
  <line class="cls-2" x1="2781.67" y1="173.33" x2="2781.67" y2="413.67"/>
  <line class="cls-2" x1="2693.67" y1="708.33" x2="2693.67" y2="413.67"/>
  <line class="cls-2" x1="2724.5" y1="580.5" x2="2819" y2="580.5"/>
  <line class="cls-2" x1="2771.75" y1="583" x2="2771.75" y2="413.67"/>
  <line class="cls-2" x1="3096.5" y1="388.5" x2="3096.5" y2="173.33"/>
  <line class="cls-2" x1="3039" y1="2942" x2="3039" y2="3234.67"/>
  <line class="cls-2" x1="2937.67" y1="3083.67" x2="3039" y2="3083.67"/>
  <line class="cls-2" x1="708.33" y1="2234.33" x2="1035.44" y2="2234.33"/>
  <line class="cls-2" x1="1035.44" y1="2392" x2="708.33" y2="2392"/>
  <line class="cls-2" x1="708.33" y1="2556.33" x2="1035.44" y2="2556.33"/>
  <polyline class="cls-2" points="1035.44 2713 797 2713 708.33 2713"/>
  <line class="cls-2" x1="797" y1="2857" x2="797" y2="2713"/>
  <line class="cls-2" x1="2091.44" y1="413.67" x2="2091.44" y2="708.33"/>
  <line class="cls-2" x1="1967.5" y1="576.5" x2="2062.5" y2="576.5"/>
  <line class="cls-2" x1="2013.5" y1="579" x2="2013.5" y2="413.67"/>
  <text class="cls-6" transform="translate(471.67 955)"><tspan x="0" y="0">2148</tspan></text>
  <text class="cls-6" transform="translate(474 1122)"><tspan x="0" y="0">2146</tspan></text>
  <text class="cls-6" transform="translate(474 1289)"><tspan x="0" y="0">2144</tspan></text>
  <text class="cls-6" transform="translate(468 1434)"><tspan x="0" y="0">2142</tspan></text>
  <text class="cls-6" transform="translate(470 1609)"><tspan x="0" y="0">2140</tspan></text>
  <text class="cls-6" transform="translate(470 1801)"><tspan x="0" y="0">2136</tspan></text>
  <text class="cls-6" transform="translate(475.44 2109.89)"><tspan x="0" y="0">2132</tspan></text>
  <text class="cls-6" transform="translate(467.78 2331.11)"><tspan x="0" y="0">2130</tspan></text>
  <text class="cls-6" transform="translate(470 2689.67)"><tspan x="0" y="0">2126</tspan></text>
  <text class="cls-6" transform="translate(465.67 2878)"><tspan x="0" y="0">2122</tspan></text>
  <text class="cls-6" transform="translate(471.67 3050.67)"><tspan x="0" y="0">2120</tspan></text>
  <text class="cls-6" transform="translate(475 3193.33)"><tspan x="0" y="0">2114</tspan></text>
  <text class="cls-6" transform="translate(477.22 3589.89)"><tspan x="0" y="0">2110</tspan></text>
  <text class="cls-6" transform="translate(553.89 3690.89)"><tspan x="0" y="0">2108</tspan></text>
  <text class="cls-6" transform="translate(621.67 3537.22)"><tspan x="0" y="0">2106</tspan></text>
  <text class="cls-6" transform="translate(708.44 3674.89)"><tspan x="0" y="0">2104</tspan></text>
  <text class="cls-6" transform="translate(775.89 3539.89)"><tspan x="0" y="0">2102</tspan></text>
  <text class="cls-6" transform="translate(871.56 3675.22)"><tspan x="0" y="0">2100</tspan></text>
  <text class="cls-6" transform="translate(833.44 3402.33)"><tspan x="0" y="0">2113</tspan></text>
  <text class="cls-6" transform="translate(826.56 3193.78)"><tspan x="0" y="0">2115</tspan></text>
  <text class="cls-6" transform="translate(832.22 3037.56)"><tspan x="0" y="0">2119</tspan></text>
  <text class="cls-6" transform="translate(865.22 2792.11)"><tspan x="0" y="0">2123</tspan></text>
  <text class="cls-6" transform="translate(825.11 2643.11)"><tspan x="0" y="0">2125</tspan></text>
  <text class="cls-6" transform="translate(828.33 2483.11)"><tspan x="0" y="0">2127</tspan></text>
  <text class="cls-6" transform="translate(827.44 2316.89)"><tspan x="0" y="0">2129</tspan></text>
  <text class="cls-6" transform="translate(848.78 2164)"><tspan x="0" y="0">2134</tspan></text>
  <text class="cls-6" transform="translate(822.67 1603.78)"><tspan x="0" y="0">2141</tspan></text>
  <text class="cls-6" transform="translate(823.22 1391.78)"><tspan x="0" y="0">2145</tspan></text>
  <text class="cls-6" transform="translate(821.67 1146.44)"><tspan x="0" y="0">2147</tspan></text>
  <line class="cls-2" x1="871.89" y1="787" x2="871.89" y2="1019"/>
  <text class="cls-6" transform="translate(905.33 914.56)"><tspan x="0" y="0">2154</tspan></text>
  <text class="cls-6" transform="translate(745.44 917.44)"><tspan x="0" y="0">2152</tspan></text>
  <text class="cls-6" transform="translate(749.71 1762.38) rotate(90)"><tspan x="0" y="0">2139</tspan></text>
  <text class="cls-6" transform="translate(834.71 1760.38) rotate(90)"><tspan x="0" y="0">2137</tspan></text>
  <text class="cls-6" transform="translate(1304.56 1825.67)"><tspan x="0" y="0">2213</tspan></text>
  <text class="cls-6" transform="translate(1504 1899.44)"><tspan x="0" y="0">2400</tspan></text>
  <text class="cls-6" transform="translate(1689.67 1899.67)"><tspan x="0" y="0">2240</tspan></text>
  <text class="cls-6" transform="translate(1494 1717.56)"><tspan x="0" y="0">2410A</tspan></text>
  <text class="cls-6" transform="translate(1672.78 2249.56)"><tspan x="0" y="0">2210</tspan></text>
  <text class="cls-6" transform="translate(1447.22 2250)"><tspan x="0" y="0">2212</tspan></text>
  <text class="cls-6" transform="translate(1573 2695.78)"><tspan x="0" y="0">2221</tspan></text>
  <text class="cls-6" transform="translate(1334.22 3073)"><tspan x="0" y="0">2214</tspan></text>
  <text class="cls-6" transform="translate(1727 3026)"><tspan x="0" y="0">2222</tspan></text>
  <text class="cls-6" transform="translate(1964 3271)"><tspan x="0" y="0">2225</tspan></text>
  <text class="cls-6" transform="translate(2135.67 3046.67)"><tspan x="0" y="0">2228</tspan></text>
  <text class="cls-6" transform="translate(2027 2565.33)"><tspan x="0" y="0">2219</tspan></text>
  <text class="cls-6" transform="translate(2038.67 2264.67)"><tspan x="0" y="0">2215</tspan></text>
  <text class="cls-6" transform="translate(2077 1967.33)"><tspan x="0" y="0">2203</tspan></text>
  <text class="cls-6" transform="translate(2077.33 1885.67)"><tspan x="0" y="0">2205</tspan></text>
  <text class="cls-6" transform="translate(2072.33 1739)"><tspan x="0" y="0">2241</tspan></text>
  <text class="cls-6" transform="translate(2074.33 1546)"><tspan x="0" y="0">2243</tspan></text>
  <text class="cls-6" transform="translate(2010.67 1348.33)"><tspan x="0" y="0">2245</tspan></text>
  <text class="cls-6" transform="translate(2010.67 1142.67)"><tspan x="0" y="0">2247</tspan></text>
  <text class="cls-6" transform="translate(2008.33 915.33)"><tspan x="0" y="0">2249</tspan></text>
  <text class="cls-6" transform="translate(1727.78 918.78)"><tspan x="0" y="0">2248</tspan></text>
  <text class="cls-6" transform="translate(1579.67 918.89)"><tspan x="0" y="0">2279</tspan></text>
  <text class="cls-6" transform="translate(1582.22 1126.22)"><tspan x="0" y="0">2277</tspan></text>
  <text class="cls-6" transform="translate(1730.22 1157.22)"><tspan x="0" y="0">2246</tspan></text>
  <text class="cls-6" transform="translate(1653.22 1354.11)"><tspan x="0" y="0">2269</tspan></text>
  <text class="cls-6" transform="translate(1581.22 1239.11)"><tspan x="0" y="0">2275</tspan></text>
  <text class="cls-6" transform="translate(1698.22 1722)"><tspan x="0" y="0">2242</tspan></text>
  <text class="cls-6" transform="translate(1697.33 1568.44)"><tspan x="0" y="0">2270</tspan></text>
  <text class="cls-3" transform="translate(1432.33 1568.24) scale(.96 1)"><tspan x="0" y="0">2272</tspan></text>
  <text class="cls-6" transform="translate(1371.44 1355)"><tspan x="0" y="0">2274</tspan></text>
  <text class="cls-6" transform="translate(1368.89 1132.44)"><tspan x="0" y="0">2276</tspan></text>
  <text class="cls-6" transform="translate(1372.89 915.22)"><tspan x="0" y="0">2278</tspan></text>
  <text class="cls-6" transform="translate(1572 600.44)"><tspan x="0" y="0">2281</tspan></text>
  <text class="cls-6" transform="translate(1519.89 332.33)"><tspan x="0" y="0">2280</tspan></text>
  <text class="cls-6" transform="translate(1794.78 332.11)"><tspan x="0" y="0">2254</tspan></text>
  <text class="cls-6" transform="translate(2021.67 317.33)"><tspan x="0" y="0">2254A</tspan></text>
  <text class="cls-6" transform="translate(1953 437.75) rotate(90)"><tspan x="0" y="0">2255</tspan></text>
  <text class="cls-6" transform="translate(2041 437.75) rotate(90)"><tspan x="0" y="0">2257</tspan></text>
  <text class="cls-6" transform="translate(2144.33 563.11)"><tspan x="0" y="0">2260</tspan></text>
  <text class="cls-6" transform="translate(2335.56 311.56)"><tspan x="0" y="0">2262</tspan></text>
  <text class="cls-6" transform="translate(2485.44 562.67)"><tspan x="0" y="0">2261</tspan></text>
  <text class="cls-6" transform="translate(2723.46 442.85) rotate(90)"><tspan x="0" y="0">2363</tspan></text>
  <text class="cls-6" transform="translate(2806.46 442.85) rotate(90)"><tspan x="0" y="0">2365</tspan></text>
  <text class="cls-6" transform="translate(2635.22 311.67)"><tspan x="0" y="0">2262A</tspan></text>
  <text class="cls-6" transform="translate(2881.33 311.78)"><tspan x="0" y="0">2267</tspan></text>
  <text class="cls-6" transform="translate(2685 908.33)"><tspan x="0" y="0">2356</tspan></text>
  <text class="cls-6" transform="translate(2687.33 1148.67)"><tspan x="0" y="0">2354</tspan></text>
  <text class="cls-6" transform="translate(2686.67 1341.33)"><tspan x="0" y="0">2352</tspan></text>
  <text class="cls-6" transform="translate(2623 1536.67)"><tspan x="0" y="0">2350</tspan></text>
  <text class="cls-6" transform="translate(2619.67 1722.33)"><tspan x="0" y="0">2348</tspan></text>
  <text class="cls-6" transform="translate(2622 1889.67)"><tspan x="0" y="0">2301</tspan></text>
  <text class="cls-6" transform="translate(2617 1967.67)"><tspan x="0" y="0">2302</tspan></text>
  <text class="cls-6" transform="translate(2665.44 2268.78)"><tspan x="0" y="0">2304</tspan></text>
  <text class="cls-6" transform="translate(2732.22 2437.22)"><tspan x="0" y="0">2306</tspan></text>
  <text class="cls-6" transform="translate(2655 2612.22)"><tspan x="0" y="0">2308</tspan></text>
  <line class="cls-1" x1="3039" y1="3292.5" x2="3039" y2="3519"/>
  <text class="cls-6" transform="translate(3078 3408)"><tspan x="0" y="0">2316</tspan></text>
  <text class="cls-6" transform="translate(3338.67 3416)"><tspan x="0" y="0">2318</tspan></text>
  <text class="cls-6" transform="translate(2943.67 3162.67)"><tspan x="0" y="0">2315</tspan></text>
  <text class="cls-6" transform="translate(2943.67 3032.67)"><tspan x="0" y="0">2313</tspan></text>
  <text class="cls-6" transform="translate(3100.33 3094)"><tspan x="0" y="0">2317</tspan></text>
  <text class="cls-6" transform="translate(2946 2821.33)"><tspan x="0" y="0">2311</tspan></text>
  <text class="cls-4" transform="translate(2941.67 2705.98)"><tspan x="0" y="0">2309</tspan></text>
  <text class="cls-6" transform="translate(3092 2727)"><tspan x="0" y="0">2324</tspan></text>
  <text class="cls-6" transform="translate(3094 2443.33)"><tspan x="0" y="0">2326</tspan></text>
  <polyline class="cls-2" points="3039.5 2290 3039.5 2397 2937.67 2397"/>
  <text class="cls-5" transform="translate(2942.67 2353.11)"><tspan x="0" y="0">2305</tspan></text>
  <text class="cls-6" transform="translate(3050.22 2192.22)"><tspan x="0" y="0">2303</tspan></text>
  <text class="cls-6" transform="translate(3390.67 3212.33)"><tspan x="0" y="0">2319</tspan></text>
  <text class="cls-6" transform="translate(3387.11 3028.78)"><tspan x="0" y="0">2321</tspan></text>
  <text class="cls-6" transform="translate(3398.56 2802.44)"><tspan x="0" y="0">2323</tspan></text>
  <text class="cls-6" transform="translate(3400.22 2659.67)"><tspan x="0" y="0">2325</tspan></text>
  <text class="cls-6" transform="translate(3400.78 2523.89)"><tspan x="0" y="0">2327</tspan></text>
  <text class="cls-6" transform="translate(3402.11 2387.67)"><tspan x="0" y="0">2329</tspan></text>
  <text class="cls-6" transform="translate(3363.89 2192.11)"><tspan x="0" y="0">2331</tspan></text>
  <text class="cls-6" transform="translate(3014.22 1919.11)"><tspan x="0" y="0">2345</tspan></text>
  <text class="cls-6" transform="translate(3329.11 1823.22)"><tspan x="0" y="0">2341</tspan></text>
  <text class="cls-6" transform="translate(3016.44 1740.78)"><tspan x="0" y="0">2347</tspan></text>
  <text class="cls-6" transform="translate(3142 1224.44)"><tspan x="0" y="0">2355</tspan></text>
  <polyline class="cls-2" points="811.44 1677 811.44 1926.56 763 1926.56 844.33 1926.56"/>
  <path class="cls-8" d="m1275.61,3452.3c-1.26.27-2.2,1.39-2.2,2.72,0,.61.2,1.2.57,1.68l-1.16,6.88c-.05.29.03.6.23.82.19.23.48.36.77.36h4.76c.29,0,.57-.13.76-.35.19-.22.28-.52.24-.81l-.99-7.17c.25-.43.39-.92.39-1.42,0-1-.54-1.88-1.34-2.37v-3.72l6.27,2.72v15.56c0,1.92,1.56,3.48,3.48,3.48h28.6c1.92,0,3.48-1.56,3.48-3.48v-16.51l14.93-6.48c.38-.17.63-.55.61-.97-.02-.42-.29-.78-.69-.92l-33.96-11.59c-.22-.08-.47-.07-.69.01-11.63,4.4-30.72,11.42-32.49,11.53-.48,0-.89.34-.99.81-.1.47.15.95.59,1.14l8.83,3.83v4.25Z"/>
  <path class="cls-8" d="m1399.61,3452.3c-1.26.27-2.2,1.39-2.2,2.72,0,.61.2,1.2.57,1.68l-1.16,6.88c-.05.29.03.6.23.82.19.23.48.36.77.36h4.76c.29,0,.57-.13.76-.35.19-.22.28-.52.24-.81l-.99-7.17c.25-.43.39-.92.39-1.42,0-1-.54-1.88-1.34-2.37v-3.72l6.27,2.72v15.56c0,1.92,1.56,3.48,3.48,3.48h28.6c1.92,0,3.48-1.56,3.48-3.48v-16.51l14.93-6.48c.38-.17.63-.55.61-.97-.02-.42-.29-.78-.69-.92l-33.96-11.59c-.22-.08-.47-.07-.69.01-11.63,4.4-30.72,11.42-32.49,11.53-.48,0-.89.34-.99.81-.1.47.15.95.59,1.14l8.83,3.83v4.25Z"/>
  <path class="cls-8" d="m1489.61,3452.3c-1.26.27-2.2,1.39-2.2,2.72,0,.61.2,1.2.57,1.68l-1.16,6.88c-.05.29.03.6.23.82.19.23.48.36.77.36h4.76c.29,0,.57-.13.76-.35.19-.22.28-.52.24-.81l-.99-7.17c.25-.43.39-.92.39-1.42,0-1-.54-1.88-1.34-2.37v-3.72l6.27,2.72v15.56c0,1.92,1.56,3.48,3.48,3.48h28.6c1.92,0,3.48-1.56,3.48-3.48v-16.51l14.93-6.48c.38-.17.63-.55.61-.97-.02-.42-.29-.78-.69-.92l-33.96-11.59c-.22-.08-.47-.07-.69.01-11.63,4.4-30.72,11.42-32.49,11.53-.48,0-.89.34-.99.81-.1.47.15.95.59,1.14l8.83,3.83v4.25Z"/>
  <path class="cls-8" d="m1579.61,3452.3c-1.26.27-2.2,1.39-2.2,2.72,0,.61.2,1.2.57,1.68l-1.16,6.88c-.05.29.03.6.23.82.19.23.48.36.77.36h4.76c.29,0,.57-.13.76-.35.19-.22.28-.52.24-.81l-.99-7.17c.25-.43.39-.92.39-1.42,0-1-.54-1.88-1.34-2.37v-3.72l6.27,2.72v15.56c0,1.92,1.56,3.48,3.48,3.48h28.6c1.92,0,3.48-1.56,3.48-3.48v-16.51l14.93-6.48c.38-.17.63-.55.61-.97-.02-.42-.29-.78-.69-.92l-33.96-11.59c-.22-.08-.47-.07-.69.01-11.63,4.4-30.72,11.42-32.49,11.53-.48,0-.89.34-.99.81-.1.47.15.95.59,1.14l8.83,3.83v4.25Z"/>
  <path class="cls-8" d="m1669.61,3452.3c-1.26.27-2.2,1.39-2.2,2.72,0,.61.2,1.2.57,1.68l-1.16,6.88c-.05.29.03.6.23.82.19.23.48.36.77.36h4.76c.29,0,.57-.13.76-.35.19-.22.28-.52.24-.81l-.99-7.17c.25-.43.39-.92.39-1.42,0-1-.54-1.88-1.34-2.37v-3.72l6.27,2.72v15.56c0,1.92,1.56,3.48,3.48,3.48h28.6c1.92,0,3.48-1.56,3.48-3.48v-16.51l14.93-6.48c.38-.17.63-.55.61-.97-.02-.42-.29-.78-.69-.92l-33.96-11.59c-.22-.08-.47-.07-.69.01-11.63,4.4-30.72,11.42-32.49,11.53-.48,0-.89.34-.99.81-.1.47.15.95.59,1.14l8.83,3.83v4.25Z"/>
  <path class="cls-8" d="m1770.61,3105.3c-1.26.27-2.2,1.39-2.2,2.72,0,.61.2,1.2.57,1.68l-1.16,6.88c-.05.29.03.6.23.82.19.23.48.36.77.36h4.76c.29,0,.57-.13.76-.35.19-.22.28-.52.24-.81l-.99-7.17c.25-.43.39-.92.39-1.42,0-1-.54-1.88-1.34-2.37v-3.72l6.27,2.72v15.56c0,1.92,1.56,3.48,3.48,3.48h28.6c1.92,0,3.48-1.56,3.48-3.48v-16.51l14.93-6.48c.38-.17.63-.55.61-.97-.02-.42-.29-.78-.69-.92l-33.96-11.59c-.22-.08-.47-.07-.69.01-11.63,4.4-30.72,11.42-32.49,11.53-.48,0-.89.34-.99.81-.1.47.15.95.59,1.14l8.83,3.83v4.25Z"/>
  <path class="cls-8" d="m1770.61,2814.3c-1.26.27-2.2,1.39-2.2,2.72,0,.61.2,1.2.57,1.68l-1.16,6.88c-.05.29.03.6.23.82.19.23.48.36.77.36h4.76c.29,0,.57-.13.76-.35.19-.22.28-.52.24-.81l-.99-7.17c.25-.43.39-.92.39-1.42,0-1-.54-1.88-1.34-2.37v-3.72l6.27,2.72v15.56c0,1.92,1.56,3.48,3.48,3.48h28.6c1.92,0,3.48-1.56,3.48-3.48v-16.51l14.93-6.48c.38-.17.63-.55.61-.97-.02-.42-.29-.78-.69-.92l-33.96-11.59c-.22-.08-.47-.07-.69.01-11.63,4.4-30.72,11.42-32.49,11.53-.48,0-.89.34-.99.81-.1.47.15.95.59,1.14l8.83,3.83v4.25Z"/>
  <path class="cls-8" d="m1770.61,2727.3c-1.26.27-2.2,1.39-2.2,2.72,0,.61.2,1.2.57,1.68l-1.16,6.88c-.05.29.03.6.23.82.19.23.48.36.77.36h4.76c.29,0,.57-.13.76-.35.19-.22.28-.52.24-.81l-.99-7.17c.25-.43.39-.92.39-1.42,0-1-.54-1.88-1.34-2.37v-3.72l6.27,2.72v15.56c0,1.92,1.56,3.48,3.48,3.48h28.6c1.92,0,3.48-1.56,3.48-3.48v-16.51l14.93-6.48c.38-.17.63-.55.61-.97-.02-.42-.29-.78-.69-.92l-33.96-11.59c-.22-.08-.47-.07-.69.01-11.63,4.4-30.72,11.42-32.49,11.53-.48,0-.89.34-.99.81-.1.47.15.95.59,1.14l8.83,3.83v4.25Z"/>
  <path class="cls-8" d="m1770.61,2646.3c-1.26.27-2.2,1.39-2.2,2.72,0,.61.2,1.2.57,1.68l-1.16,6.88c-.05.29.03.6.23.82.19.23.48.36.77.36h4.76c.29,0,.57-.13.76-.35.19-.22.28-.52.24-.81l-.99-7.17c.25-.43.39-.92.39-1.42,0-1-.54-1.88-1.34-2.37v-3.72l6.27,2.72v15.56c0,1.92,1.56,3.48,3.48,3.48h28.6c1.92,0,3.48-1.56,3.48-3.48v-16.51l14.93-6.48c.38-.17.63-.55.61-.97-.02-.42-.29-.78-.69-.92l-33.96-11.59c-.22-.08-.47-.07-.69.01-11.63,4.4-30.72,11.42-32.49,11.53-.48,0-.89.34-.99.81-.1.47.15.95.59,1.14l8.83,3.83v4.25Z"/>
  <path class="cls-8" d="m1770.61,2567.3c-1.26.27-2.2,1.39-2.2,2.72,0,.61.2,1.2.57,1.68l-1.16,6.88c-.05.29.03.6.23.82.19.23.48.36.77.36h4.76c.29,0,.57-.13.76-.35.19-.22.28-.52.24-.81l-.99-7.17c.25-.43.39-.92.39-1.42,0-1-.54-1.88-1.34-2.37v-3.72l6.27,2.72v15.56c0,1.92,1.56,3.48,3.48,3.48h28.6c1.92,0,3.48-1.56,3.48-3.48v-16.51l14.93-6.48c.38-.17.63-.55.61-.97-.02-.42-.29-.78-.69-.92l-33.96-11.59c-.22-.08-.47-.07-.69.01-11.63,4.4-30.72,11.42-32.49,11.53-.48,0-.89.34-.99.81-.1.47.15.95.59,1.14l8.83,3.83v4.25Z"/>
  <path class="cls-8" d="m1422.61,2567.3c-1.26.27-2.2,1.39-2.2,2.72,0,.61.2,1.2.57,1.68l-1.16,6.88c-.05.29.03.6.23.82.19.23.48.36.77.36h4.76c.29,0,.57-.13.76-.35.19-.22.28-.52.24-.81l-.99-7.17c.25-.43.39-.92.39-1.42,0-1-.54-1.88-1.34-2.37v-3.72l6.27,2.72v15.56c0,1.92,1.56,3.48,3.48,3.48h28.6c1.92,0,3.48-1.56,3.48-3.48v-16.51l14.93-6.48c.38-.17.63-.55.61-.97-.02-.42-.29-.78-.69-.92l-33.96-11.59c-.22-.08-.47-.07-.69.01-11.63,4.4-30.72,11.42-32.49,11.53-.48,0-.89.34-.99.81-.1.47.15.95.59,1.14l8.83,3.83v4.25Z"/>
  <path class="cls-8" d="m1422.61,2643.3c-1.26.27-2.2,1.39-2.2,2.72,0,.61.2,1.2.57,1.68l-1.16,6.88c-.05.29.03.6.23.82.19.23.48.36.77.36h4.76c.29,0,.57-.13.76-.35.19-.22.28-.52.24-.81l-.99-7.17c.25-.43.39-.92.39-1.42,0-1-.54-1.88-1.34-2.37v-3.72l6.27,2.72v15.56c0,1.92,1.56,3.48,3.48,3.48h28.6c1.92,0,3.48-1.56,3.48-3.48v-16.51l14.93-6.48c.38-.17.63-.55.61-.97-.02-.42-.29-.78-.69-.92l-33.96-11.59c-.22-.08-.47-.07-.69.01-11.63,4.4-30.72,11.42-32.49,11.53-.48,0-.89.34-.99.81-.1.47.15.95.59,1.14l8.83,3.83v4.25Z"/>
  <path class="cls-8" d="m1422.61,2714.3c-1.26.27-2.2,1.39-2.2,2.72,0,.61.2,1.2.57,1.68l-1.16,6.88c-.05.29.03.6.23.82.19.23.48.36.77.36h4.76c.29,0,.57-.13.76-.35.19-.22.28-.52.24-.81l-.99-7.17c.25-.43.39-.92.39-1.42,0-1-.54-1.88-1.34-2.37v-3.72l6.27,2.72v15.56c0,1.92,1.56,3.48,3.48,3.48h28.6c1.92,0,3.48-1.56,3.48-3.48v-16.51l14.93-6.48c.38-.17.63-.55.61-.97-.02-.42-.29-.78-.69-.92l-33.96-11.59c-.22-.08-.47-.07-.69.01-11.63,4.4-30.72,11.42-32.49,11.53-.48,0-.89.34-.99.81-.1.47.15.95.59,1.14l8.83,3.83v4.25Z"/>
  <path class="cls-8" d="m1422.61,2803.3c-1.26.27-2.2,1.39-2.2,2.72,0,.61.2,1.2.57,1.68l-1.16,6.88c-.05.29.03.6.23.82.19.23.48.36.77.36h4.76c.29,0,.57-.13.76-.35.19-.22.28-.52.24-.81l-.99-7.17c.25-.43.39-.92.39-1.42,0-1-.54-1.88-1.34-2.37v-3.72l6.27,2.72v15.56c0,1.92,1.56,3.48,3.48,3.48h28.6c1.92,0,3.48-1.56,3.48-3.48v-16.51l14.93-6.48c.38-.17.63-.55.61-.97-.02-.42-.29-.78-.69-.92l-33.96-11.59c-.22-.08-.47-.07-.69.01-11.63,4.4-30.72,11.42-32.49,11.53-.48,0-.89.34-.99.81-.1.47.15.95.59,1.14l8.83,3.83v4.25Z"/>
  <path class="cls-8" d="m1770.61,3185.3c-1.26.27-2.2,1.39-2.2,2.72,0,.61.2,1.2.57,1.68l-1.16,6.88c-.05.29.03.6.23.82.19.23.48.36.77.36h4.76c.29,0,.57-.13.76-.35.19-.22.28-.52.24-.81l-.99-7.17c.25-.43.39-.92.39-1.42,0-1-.54-1.88-1.34-2.37v-3.72l6.27,2.72v15.56c0,1.92,1.56,3.48,3.48,3.48h28.6c1.92,0,3.48-1.56,3.48-3.48v-16.51l14.93-6.48c.38-.17.63-.55.61-.97-.02-.42-.29-.78-.69-.92l-33.96-11.59c-.22-.08-.47-.07-.69.01-11.63,4.4-30.72,11.42-32.49,11.53-.48,0-.89.34-.99.81-.1.47.15.95.59,1.14l8.83,3.83v4.25Z"/>
  <path class="cls-8" d="m1409.61,3295.3c-1.26.27-2.2,1.39-2.2,2.72,0,.61.2,1.2.57,1.68l-1.16,6.88c-.05.29.03.6.23.82.19.23.48.36.77.36h4.76c.29,0,.57-.13.76-.35.19-.22.28-.52.24-.81l-.99-7.17c.25-.43.39-.92.39-1.42,0-1-.54-1.88-1.34-2.37v-3.72l6.27,2.72v15.56c0,1.92,1.56,3.48,3.48,3.48h28.6c1.92,0,3.48-1.56,3.48-3.48v-16.51l14.93-6.48c.38-.17.63-.55.61-.97-.02-.42-.29-.78-.69-.92l-33.96-11.59c-.22-.08-.47-.07-.69.01-11.63,4.4-30.72,11.42-32.49,11.53-.48,0-.89.34-.99.81-.1.47.15.95.59,1.14l8.83,3.83v4.25Z"/>
  <path class="cls-8" d="m1260.61,3345.3c-1.26.27-2.2,1.39-2.2,2.72,0,.61.2,1.2.57,1.68l-1.16,6.88c-.05.29.03.6.23.82.19.23.48.36.77.36h4.76c.29,0,.57-.13.76-.35.19-.22.28-.52.24-.81l-.99-7.17c.25-.43.39-.92.39-1.42,0-1-.54-1.88-1.34-2.37v-3.72l6.27,2.72v15.56c0,1.92,1.56,3.48,3.48,3.48h28.6c1.92,0,3.48-1.56,3.48-3.48v-16.51l14.93-6.48c.38-.17.63-.55.61-.97-.02-.42-.29-.78-.69-.92l-33.96-11.59c-.22-.08-.47-.07-.69.01-11.63,4.4-30.72,11.42-32.49,11.53-.48,0-.89.34-.99.81-.1.47.15.95.59,1.14l8.83,3.83v4.25Z"/>
  <path class="cls-8" d="m1508.61,3295.3c-1.26.27-2.2,1.39-2.2,2.72,0,.61.2,1.2.57,1.68l-1.16,6.88c-.05.29.03.6.23.82.19.23.48.36.77.36h4.76c.29,0,.57-.13.76-.35.19-.22.28-.52.24-.81l-.99-7.17c.25-.43.39-.92.39-1.42,0-1-.54-1.88-1.34-2.37v-3.72l6.27,2.72v15.56c0,1.92,1.56,3.48,3.48,3.48h28.6c1.92,0,3.48-1.56,3.48-3.48v-16.51l14.93-6.48c.38-.17.63-.55.61-.97-.02-.42-.29-.78-.69-.92l-33.96-11.59c-.22-.08-.47-.07-.69.01-11.63,4.4-30.72,11.42-32.49,11.53-.48,0-.89.34-.99.81-.1.47.15.95.59,1.14l8.83,3.83v4.25Z"/>
  <path class="cls-8" d="m1613.61,3295.3c-1.26.27-2.2,1.39-2.2,2.72,0,.61.2,1.2.57,1.68l-1.16,6.88c-.05.29.03.6.23.82.19.23.48.36.77.36h4.76c.29,0,.57-.13.76-.35.19-.22.28-.52.24-.81l-.99-7.17c.25-.43.39-.92.39-1.42,0-1-.54-1.88-1.34-2.37v-3.72l6.27,2.72v15.56c0,1.92,1.56,3.48,3.48,3.48h28.6c1.92,0,3.48-1.56,3.48-3.48v-16.51l14.93-6.48c.38-.17.63-.55.61-.97-.02-.42-.29-.78-.69-.92l-33.96-11.59c-.22-.08-.47-.07-.69.01-11.63,4.4-30.72,11.42-32.49,11.53-.48,0-.89.34-.99.81-.1.47.15.95.59,1.14l8.83,3.83v4.25Z"/>
  <path class="cls-8" d="m1613.61,3211.3c-1.26.27-2.2,1.39-2.2,2.72,0,.61.2,1.2.57,1.68l-1.16,6.88c-.05.29.03.6.23.82.19.23.48.36.77.36h4.76c.29,0,.57-.13.76-.35.19-.22.28-.52.24-.81l-.99-7.17c.25-.43.39-.92.39-1.42,0-1-.54-1.88-1.34-2.37v-3.72l6.27,2.72v15.56c0,1.92,1.56,3.48,3.48,3.48h28.6c1.92,0,3.48-1.56,3.48-3.48v-16.51l14.93-6.48c.38-.17.63-.55.61-.97-.02-.42-.29-.78-.69-.92l-33.96-11.59c-.22-.08-.47-.07-.69.01-11.63,4.4-30.72,11.42-32.49,11.53-.48,0-.89.34-.99.81-.1.47.15.95.59,1.14l8.83,3.83v4.25Z"/>
  <path class="cls-8" d="m1613.61,3139.3c-1.26.27-2.2,1.39-2.2,2.72,0,.61.2,1.2.57,1.68l-1.16,6.88c-.05.29.03.6.23.82.19.23.48.36.77.36h4.76c.29,0,.57-.13.76-.35.19-.22.28-.52.24-.81l-.99-7.17c.25-.43.39-.92.39-1.42,0-1-.54-1.88-1.34-2.37v-3.72l6.27,2.72v15.56c0,1.92,1.56,3.48,3.48,3.48h28.6c1.92,0,3.48-1.56,3.48-3.48v-16.51l14.93-6.48c.38-.17.63-.55.61-.97-.02-.42-.29-.78-.69-.92l-33.96-11.59c-.22-.08-.47-.07-.69.01-11.63,4.4-30.72,11.42-32.49,11.53-.48,0-.89.34-.99.81-.1.47.15.95.59,1.14l8.83,3.83v4.25Z"/>
  <path class="cls-8" d="m1613.61,3054.3c-1.26.27-2.2,1.39-2.2,2.72,0,.61.2,1.2.57,1.68l-1.16,6.88c-.05.29.03.6.23.82.19.23.48.36.77.36h4.76c.29,0,.57-.13.76-.35.19-.22.28-.52.24-.81l-.99-7.17c.25-.43.39-.92.39-1.42,0-1-.54-1.88-1.34-2.37v-3.72l6.27,2.72v15.56c0,1.92,1.56,3.48,3.48,3.48h28.6c1.92,0,3.48-1.56,3.48-3.48v-16.51l14.93-6.48c.38-.17.63-.55.61-.97-.02-.42-.29-.78-.69-.92l-33.96-11.59c-.22-.08-.47-.07-.69.01-11.63,4.4-30.72,11.42-32.49,11.53-.48,0-.89.34-.99.81-.1.47.15.95.59,1.14l8.83,3.83v4.25Z"/>
  <path class="cls-8" d="m1613.61,2985.3c-1.26.27-2.2,1.39-2.2,2.72,0,.61.2,1.2.57,1.68l-1.16,6.88c-.05.29.03.6.23.82.19.23.48.36.77.36h4.76c.29,0,.57-.13.76-.35.19-.22.28-.52.24-.81l-.99-7.17c.25-.43.39-.92.39-1.42,0-1-.54-1.88-1.34-2.37v-3.72l6.27,2.72v15.56c0,1.92,1.56,3.48,3.48,3.48h28.6c1.92,0,3.48-1.56,3.48-3.48v-16.51l14.93-6.48c.38-.17.63-.55.61-.97-.02-.42-.29-.78-.69-.92l-33.96-11.59c-.22-.08-.47-.07-.69.01-11.63,4.4-30.72,11.42-32.49,11.53-.48,0-.89.34-.99.81-.1.47.15.95.59,1.14l8.83,3.83v4.25Z"/>
  <path class="cls-8" d="m1940.61,3173.3c-1.26.27-2.2,1.39-2.2,2.72,0,.61.2,1.2.57,1.68l-1.16,6.88c-.05.29.03.6.23.82.19.23.48.36.77.36h4.76c.29,0,.57-.13.76-.35.19-.22.28-.52.24-.81l-.99-7.17c.25-.43.39-.92.39-1.42,0-1-.54-1.88-1.34-2.37v-3.72l6.27,2.72v15.56c0,1.92,1.56,3.48,3.48,3.48h28.6c1.92,0,3.48-1.56,3.48-3.48v-16.51l14.93-6.48c.38-.17.63-.55.61-.97-.02-.42-.29-.78-.69-.92l-33.96-11.59c-.22-.08-.47-.07-.69.01-11.63,4.4-30.72,11.42-32.49,11.53-.48,0-.89.34-.99.81-.1.47.15.95.59,1.14l8.83,3.83v4.25Z"/>
  <path class="cls-8" d="m2016.61,3173.3c-1.26.27-2.2,1.39-2.2,2.72,0,.61.2,1.2.57,1.68l-1.16,6.88c-.05.29.03.6.23.82.19.23.48.36.77.36h4.76c.29,0,.57-.13.76-.35.19-.22.28-.52.24-.81l-.99-7.17c.25-.43.39-.92.39-1.42,0-1-.54-1.88-1.34-2.37v-3.72l6.27,2.72v15.56c0,1.92,1.56,3.48,3.48,3.48h28.6c1.92,0,3.48-1.56,3.48-3.48v-16.51l14.93-6.48c.38-.17.63-.55.61-.97-.02-.42-.29-.78-.69-.92l-33.96-11.59c-.22-.08-.47-.07-.69.01-11.63,4.4-30.72,11.42-32.49,11.53-.48,0-.89.34-.99.81-.1.47.15.95.59,1.14l8.83,3.83v4.25Z"/>
  <path class="cls-8" d="m1940.61,3347.3c-1.26.27-2.2,1.39-2.2,2.72,0,.61.2,1.2.57,1.68l-1.16,6.88c-.05.29.03.6.23.82.19.23.48.36.77.36h4.76c.29,0,.57-.13.76-.35.19-.22.28-.52.24-.81l-.99-7.17c.25-.43.39-.92.39-1.42,0-1-.54-1.88-1.34-2.37v-3.72l6.27,2.72v15.56c0,1.92,1.56,3.48,3.48,3.48h28.6c1.92,0,3.48-1.56,3.48-3.48v-16.51l14.93-6.48c.38-.17.63-.55.61-.97-.02-.42-.29-.78-.69-.92l-33.96-11.59c-.22-.08-.47-.07-.69.01-11.63,4.4-30.72,11.42-32.49,11.53-.48,0-.89.34-.99.81-.1.47.15.95.59,1.14l8.83,3.83v4.25Z"/>
  <path class="cls-8" d="m2136.61,3327.3c-1.26.27-2.2,1.39-2.2,2.72,0,.61.2,1.2.57,1.68l-1.16,6.88c-.05.29.03.6.23.82.19.23.48.36.77.36h4.76c.29,0,.57-.13.76-.35.19-.22.28-.52.24-.81l-.99-7.17c.25-.43.39-.92.39-1.42,0-1-.54-1.88-1.34-2.37v-3.72l6.27,2.72v15.56c0,1.92,1.56,3.48,3.48,3.48h28.6c1.92,0,3.48-1.56,3.48-3.48v-16.51l14.93-6.48c.38-.17.63-.55.61-.97-.02-.42-.29-.78-.69-.92l-33.96-11.59c-.22-.08-.47-.07-.69.01-11.63,4.4-30.72,11.42-32.49,11.53-.48,0-.89.34-.99.81-.1.47.15.95.59,1.14l8.83,3.83v4.25Z"/>
  <path class="cls-8" d="m2234.61,3345.3c-1.26.27-2.2,1.39-2.2,2.72,0,.61.2,1.2.57,1.68l-1.16,6.88c-.05.29.03.6.23.82.19.23.48.36.77.36h4.76c.29,0,.57-.13.76-.35.19-.22.28-.52.24-.81l-.99-7.17c.25-.43.39-.92.39-1.42,0-1-.54-1.88-1.34-2.37v-3.72l6.27,2.72v15.56c0,1.92,1.56,3.48,3.48,3.48h28.6c1.92,0,3.48-1.56,3.48-3.48v-16.51l14.93-6.48c.38-.17.63-.55.61-.97-.02-.42-.29-.78-.69-.92l-33.96-11.59c-.22-.08-.47-.07-.69.01-11.63,4.4-30.72,11.42-32.49,11.53-.48,0-.89.34-.99.81-.1.47.15.95.59,1.14l8.83,3.83v4.25Z"/>
  <path class="cls-8" d="m2323.61,3345.3c-1.26.27-2.2,1.39-2.2,2.72,0,.61.2,1.2.57,1.68l-1.16,6.88c-.05.29.03.6.23.82.19.23.48.36.77.36h4.76c.29,0,.57-.13.76-.35.19-.22.28-.52.24-.81l-.99-7.17c.25-.43.39-.92.39-1.42,0-1-.54-1.88-1.34-2.37v-3.72l6.27,2.72v15.56c0,1.92,1.56,3.48,3.48,3.48h28.6c1.92,0,3.48-1.56,3.48-3.48v-16.51l14.93-6.48c.38-.17.63-.55.61-.97-.02-.42-.29-.78-.69-.92l-33.96-11.59c-.22-.08-.47-.07-.69.01-11.63,4.4-30.72,11.42-32.49,11.53-.48,0-.89.34-.99.81-.1.47.15.95.59,1.14l8.83,3.83v4.25Z"/>
  <path class="cls-8" d="m2411.61,3345.3c-1.26.27-2.2,1.39-2.2,2.72,0,.61.2,1.2.57,1.68l-1.16,6.88c-.05.29.03.6.23.82.19.23.48.36.77.36h4.76c.29,0,.57-.13.76-.35.19-.22.28-.52.24-.81l-.99-7.17c.25-.43.39-.92.39-1.42,0-1-.54-1.88-1.34-2.37v-3.72l6.27,2.72v15.56c0,1.92,1.56,3.48,3.48,3.48h28.6c1.92,0,3.48-1.56,3.48-3.48v-16.51l14.93-6.48c.38-.17.63-.55.61-.97-.02-.42-.29-.78-.69-.92l-33.96-11.59c-.22-.08-.47-.07-.69.01-11.63,4.4-30.72,11.42-32.49,11.53-.48,0-.89.34-.99.81-.1.47.15.95.59,1.14l8.83,3.83v4.25Z"/>
  <path class="cls-8" d="m2503.61,3345.3c-1.26.27-2.2,1.39-2.2,2.72,0,.61.2,1.2.57,1.68l-1.16,6.88c-.05.29.03.6.23.82.19.23.48.36.77.36h4.76c.29,0,.57-.13.76-.35.19-.22.28-.52.24-.81l-.99-7.17c.25-.43.39-.92.39-1.42,0-1-.54-1.88-1.34-2.37v-3.72l6.27,2.72v15.56c0,1.92,1.56,3.48,3.48,3.48h28.6c1.92,0,3.48-1.56,3.48-3.48v-16.51l14.93-6.48c.38-.17.63-.55.61-.97-.02-.42-.29-.78-.69-.92l-33.96-11.59c-.22-.08-.47-.07-.69.01-11.63,4.4-30.72,11.42-32.49,11.53-.48,0-.89.34-.99.81-.1.47.15.95.59,1.14l8.83,3.83v4.25Z"/>
  <path class="cls-8" d="m2593.61,3345.3c-1.26.27-2.2,1.39-2.2,2.72,0,.61.2,1.2.57,1.68l-1.16,6.88c-.05.29.03.6.23.82.19.23.48.36.77.36h4.76c.29,0,.57-.13.76-.35.19-.22.28-.52.24-.81l-.99-7.17c.25-.43.39-.92.39-1.42,0-1-.54-1.88-1.34-2.37v-3.72l6.27,2.72v15.56c0,1.92,1.56,3.48,3.48,3.48h28.6c1.92,0,3.48-1.56,3.48-3.48v-16.51l14.93-6.48c.38-.17.63-.55.61-.97-.02-.42-.29-.78-.69-.92l-33.96-11.59c-.22-.08-.47-.07-.69.01-11.63,4.4-30.72,11.42-32.49,11.53-.48,0-.89.34-.99.81-.1.47.15.95.59,1.14l8.83,3.83v4.25Z"/>
  <path class="cls-8" d="m2688.61,3345.3c-1.26.27-2.2,1.39-2.2,2.72,0,.61.2,1.2.57,1.68l-1.16,6.88c-.05.29.03.6.23.82.19.23.48.36.77.36h4.76c.29,0,.57-.13.76-.35.19-.22.28-.52.24-.81l-.99-7.17c.25-.43.39-.92.39-1.42,0-1-.54-1.88-1.34-2.37v-3.72l6.27,2.72v15.56c0,1.92,1.56,3.48,3.48,3.48h28.6c1.92,0,3.48-1.56,3.48-3.48v-16.51l14.93-6.48c.38-.17.63-.55.61-.97-.02-.42-.29-.78-.69-.92l-33.96-11.59c-.22-.08-.47-.07-.69.01-11.63,4.4-30.72,11.42-32.49,11.53-.48,0-.89.34-.99.81-.1.47.15.95.59,1.14l8.83,3.83v4.25Z"/>
  <path class="cls-8" d="m2789.61,3345.3c-1.26.27-2.2,1.39-2.2,2.72,0,.61.2,1.2.57,1.68l-1.16,6.88c-.05.29.03.6.23.82.19.23.48.36.77.36h4.76c.29,0,.57-.13.76-.35.19-.22.28-.52.24-.81l-.99-7.17c.25-.43.39-.92.39-1.42,0-1-.54-1.88-1.34-2.37v-3.72l6.27,2.72v15.56c0,1.92,1.56,3.48,3.48,3.48h28.6c1.92,0,3.48-1.56,3.48-3.48v-16.51l14.93-6.48c.38-.17.63-.55.61-.97-.02-.42-.29-.78-.69-.92l-33.96-11.59c-.22-.08-.47-.07-.69.01-11.63,4.4-30.72,11.42-32.49,11.53-.48,0-.89.34-.99.81-.1.47.15.95.59,1.14l8.83,3.83v4.25Z"/>
  <path class="cls-8" d="m2639.61,3218.3c-1.26.27-2.2,1.39-2.2,2.72,0,.61.2,1.2.57,1.68l-1.16,6.88c-.05.29.03.6.23.82.19.23.48.36.77.36h4.76c.29,0,.57-.13.76-.35.19-.22.28-.52.24-.81l-.99-7.17c.25-.43.39-.92.39-1.42,0-1-.54-1.88-1.34-2.37v-3.72l6.27,2.72v15.56c0,1.92,1.56,3.48,3.48,3.48h28.6c1.92,0,3.48-1.56,3.48-3.48v-16.51l14.93-6.48c.38-.17.63-.55.61-.97-.02-.42-.29-.78-.69-.92l-33.96-11.59c-.22-.08-.47-.07-.69.01-11.63,4.4-30.72,11.42-32.49,11.53-.48,0-.89.34-.99.81-.1.47.15.95.59,1.14l8.83,3.83v4.25Z"/>
  <path class="cls-8" d="m2639.61,3144.3c-1.26.27-2.2,1.39-2.2,2.72,0,.61.2,1.2.57,1.68l-1.16,6.88c-.05.29.03.6.23.82.19.23.48.36.77.36h4.76c.29,0,.57-.13.76-.35.19-.22.28-.52.24-.81l-.99-7.17c.25-.43.39-.92.39-1.42,0-1-.54-1.88-1.34-2.37v-3.72l6.27,2.72v15.56c0,1.92,1.56,3.48,3.48,3.48h28.6c1.92,0,3.48-1.56,3.48-3.48v-16.51l14.93-6.48c.38-.17.63-.55.61-.97-.02-.42-.29-.78-.69-.92l-33.96-11.59c-.22-.08-.47-.07-.69.01-11.63,4.4-30.72,11.42-32.49,11.53-.48,0-.89.34-.99.81-.1.47.15.95.59,1.14l8.83,3.83v4.25Z"/>
  <path class="cls-8" d="m2639.61,3062.3c-1.26.27-2.2,1.39-2.2,2.72,0,.61.2,1.2.57,1.68l-1.16,6.88c-.05.29.03.6.23.82.19.23.48.36.77.36h4.76c.29,0,.57-.13.76-.35.19-.22.28-.52.24-.81l-.99-7.17c.25-.43.39-.92.39-1.42,0-1-.54-1.88-1.34-2.37v-3.72l6.27,2.72v15.56c0,1.92,1.56,3.48,3.48,3.48h28.6c1.92,0,3.48-1.56,3.48-3.48v-16.51l14.93-6.48c.38-.17.63-.55.61-.97-.02-.42-.29-.78-.69-.92l-33.96-11.59c-.22-.08-.47-.07-.69.01-11.63,4.4-30.72,11.42-32.49,11.53-.48,0-.89.34-.99.81-.1.47.15.95.59,1.14l8.83,3.83v4.25Z"/>
  <path class="cls-8" d="m2639.61,2984.3c-1.26.27-2.2,1.39-2.2,2.72,0,.61.2,1.2.57,1.68l-1.16,6.88c-.05.29.03.6.23.82.19.23.48.36.77.36h4.76c.29,0,.57-.13.76-.35.19-.22.28-.52.24-.81l-.99-7.17c.25-.43.39-.92.39-1.42,0-1-.54-1.88-1.34-2.37v-3.72l6.27,2.72v15.56c0,1.92,1.56,3.48,3.48,3.48h28.6c1.92,0,3.48-1.56,3.48-3.48v-16.51l14.93-6.48c.38-.17.63-.55.61-.97-.02-.42-.29-.78-.69-.92l-33.96-11.59c-.22-.08-.47-.07-.69.01-11.63,4.4-30.72,11.42-32.49,11.53-.48,0-.89.34-.99.81-.1.47.15.95.59,1.14l8.83,3.83v4.25Z"/>
  <g>
    <circle class="cls-8" cx="783.17" cy="1940.98" r="7.98" transform="translate(-135.62 60.4) rotate(-4.07)"/>
    <path class="cls-8" d="m792.15,1952.33h-17.97c-3.98,0-6.58,5.41-4.79,10.01l10.14,26.17c1.38,3.55,5.91,3.55,7.28,0l10.14-26.17c1.78-4.6-.81-10.01-4.79-10.01Z"/>
    <circle class="cls-8" cx="821.82" cy="1940.98" r="7.98" transform="translate(-135.53 63.14) rotate(-4.07)"/>
    <path class="cls-8" d="m810.54,1991.17h22.56c3.98,0,6.58-4.95,4.79-9.15l-11.9-27.65c-.55-1.58-2.02-2.63-3.66-2.63h-.83c-1.64,0-3.1,1.04-3.66,2.61l-12.09,27.67c-1.78,4.2.81,9.15,4.79,9.15Z"/>
  </g>
  <g>
    <circle class="cls-8" cx="2781.17" cy="1910.98" r="7.98" transform="translate(-128.47 201.96) rotate(-4.07)"/>
    <path class="cls-8" d="m2790.15,1922.33h-17.97c-3.98,0-6.58,5.41-4.79,10.01l10.14,26.17c1.38,3.55,5.91,3.55,7.28,0l10.14-26.17c1.78-4.6-.81-10.01-4.79-10.01Z"/>
    <circle class="cls-8" cx="2819.82" cy="1910.98" r="7.98" transform="translate(-128.37 204.7) rotate(-4.07)"/>
    <path class="cls-8" d="m2808.54,1961.17h22.56c3.98,0,6.58-4.95,4.79-9.15l-11.9-27.65c-.55-1.58-2.02-2.63-3.66-2.63h-.83c-1.64,0-3.1,1.04-3.66,2.61l-12.09,27.67c-1.78,4.2.81,9.15,4.79,9.15Z"/>
  </g>
  <g>
    <circle class="cls-8" cx="2751.17" cy="632.98" r="7.98" transform="translate(-37.95 196.62) rotate(-4.07)"/>
    <path class="cls-8" d="m2760.15,644.33h-17.97c-3.98,0-6.58,5.41-4.79,10.01l10.14,26.17c1.38,3.55,5.91,3.55,7.28,0l10.14-26.17c1.78-4.6-.81-10.01-4.79-10.01Z"/>
    <circle class="cls-8" cx="2789.82" cy="632.98" r="7.98" transform="translate(-37.85 199.36) rotate(-4.07)"/>
    <path class="cls-8" d="m2778.54,683.17h22.56c3.98,0,6.58-4.95,4.79-9.15l-11.9-27.65c-.55-1.58-2.02-2.63-3.66-2.63h-.83c-1.64,0-3.1,1.04-3.66,2.61l-12.09,27.67c-1.78,4.2.81,9.15,4.79,9.15Z"/>
  </g>
  <g>
    <circle class="cls-8" cx="1994.17" cy="632.98" r="7.98" transform="translate(-39.85 142.96) rotate(-4.07)"/>
    <path class="cls-8" d="m2003.15,644.33h-17.97c-3.98,0-6.58,5.41-4.79,10.01l10.14,26.17c1.38,3.55,5.91,3.55,7.28,0l10.14-26.17c1.78-4.6-.81-10.01-4.79-10.01Z"/>
    <circle class="cls-8" cx="2032.82" cy="632.98" r="7.98" transform="translate(-39.76 145.7) rotate(-4.07)"/>
    <path class="cls-8" d="m2021.54,683.17h22.56c3.98,0,6.58-4.95,4.79-9.15l-11.9-27.65c-.55-1.58-2.02-2.63-3.66-2.63h-.83c-1.64,0-3.1,1.04-3.66,2.61l-12.09,27.67c-1.78,4.2.81,9.15,4.79,9.15Z"/>
  </g>
  <g>
    <circle class="cls-8" cx="1967.17" cy="1920.98" r="7.98" transform="translate(-131.23 144.28) rotate(-4.07)"/>
    <path class="cls-8" d="m1976.15,1932.33h-17.97c-3.98,0-6.58,5.41-4.79,10.01l10.14,26.17c1.38,3.55,5.91,3.55,7.28,0l10.14-26.17c1.78-4.6-.81-10.01-4.79-10.01Z"/>
    <circle class="cls-8" cx="2005.82" cy="1920.98" r="7.98" transform="translate(-131.13 147.02) rotate(-4.07)"/>
    <path class="cls-8" d="m1994.54,1971.17h22.56c3.98,0,6.58-4.95,4.79-9.15l-11.9-27.65c-.55-1.58-2.02-2.63-3.66-2.63h-.83c-1.64,0-3.1,1.04-3.66,2.61l-12.09,27.67c-1.78,4.2.81,9.15,4.79,9.15Z"/>
  </g>
  <g>
    <g>
      <circle class="cls-8" cx="912.84" cy="1953.75" r="4.91" transform="translate(-136.2 69.62) rotate(-4.07)"/>
      <path class="cls-8" d="m918.37,1960.73h-11.05c-2.45,0-4.04,3.33-2.95,6.15l6.23,16.09c.85,2.18,3.63,2.18,4.48,0l6.23-16.09c1.1-2.83-.5-6.15-2.95-6.15Z"/>
    </g>
    <g>
      <circle class="cls-8" cx="932.57" cy="1953.75" r="4.91" transform="translate(-136.15 71.02) rotate(-4.07)"/>
      <path class="cls-8" d="m938.1,1960.73h-11.05c-2.45,0-4.04,3.33-2.95,6.15l6.23,16.09c.85,2.18,3.63,2.18,4.48,0l6.23-16.09c1.1-2.83-.5-6.15-2.95-6.15Z"/>
    </g>
    <polygon class="cls-8" points="949.01 1992 895.99 1992 895.99 1940.84 899.71 1940.84 899.71 1988.28 945.29 1988.28 945.29 1940.84 949.01 1940.84 949.01 1992"/>
    <polygon class="cls-7" points="906.56 1945.05 903.93 1942.42 913.06 1933.29 921.76 1941.98 919.13 1944.61 913.06 1938.55 906.56 1945.05"/>
    <polygon class="cls-7" points="932.35 1944.77 923.66 1936.08 926.29 1933.45 932.35 1939.51 938.86 1933 941.49 1935.63 932.35 1944.77"/>
  </g>
  <g>
    <g>
      <circle class="cls-8" cx="2464.97" cy="1907.98" r="8.15" transform="translate(-129.05 179.54) rotate(-4.07)"/>
      <path class="cls-8" d="m2474.14,1919.57h-18.34c-4.07,0-6.71,5.52-4.89,10.22l10.35,26.71c1.4,3.62,6.03,3.62,7.43,0l10.35-26.71c1.82-4.69-.83-10.22-4.89-10.22Z"/>
    </g>
    <g>
      <circle class="cls-8" cx="2497.72" cy="1907.98" r="8.15" transform="translate(-128.97 181.86) rotate(-4.07)"/>
      <path class="cls-8" d="m2506.89,1919.57h-18.34c-4.07,0-6.71,5.52-4.89,10.22l10.35,26.71c1.4,3.62,6.03,3.62,7.43,0l10.35-26.71c1.82-4.69-.83-10.22-4.89-10.22Z"/>
    </g>
    <polygon class="cls-8" points="2525.01 1971.47 2437 1971.47 2437 1886.55 2443.18 1886.55 2443.18 1965.29 2518.83 1965.29 2518.83 1886.55 2525.01 1886.55 2525.01 1971.47"/>
    <polygon class="cls-7" points="2454.54 1893.54 2450.17 1889.17 2465.34 1874.01 2479.77 1888.43 2475.4 1892.8 2465.34 1882.74 2454.54 1893.54"/>
    <polygon class="cls-7" points="2497.35 1893.07 2482.93 1878.64 2487.29 1874.27 2497.35 1884.33 2508.16 1873.53 2512.52 1877.9 2497.35 1893.07"/>
  </g>
  <g>
    <polygon class="cls-8" points="906.83 571 906.83 592.08 885.75 592.08 885.75 613.15 864.68 613.15 864.68 634.23 843.6 634.23 843.6 660.43 853.83 660.43 853.83 644.46 874.91 644.46 874.91 623.39 895.99 623.39 895.99 602.31 917.06 602.31 917.06 581.23 933.02 581.23 933.02 571 906.83 571"/>
    <polygon class="cls-9" points="846.17 610.9 864.67 592.39 864.67 602.14 874.91 602.14 874.91 574.93 847.69 574.93 847.69 585.16 857.44 585.16 838.94 603.66 846.17 610.9"/>
  </g>
  <g>
    <polygon class="cls-8" points="1197.83 2172 1197.83 2193.08 1176.75 2193.08 1176.75 2214.15 1155.68 2214.15 1155.68 2235.23 1134.6 2235.23 1134.6 2261.43 1144.83 2261.43 1144.83 2245.46 1165.91 2245.46 1165.91 2224.39 1186.99 2224.39 1186.99 2203.31 1208.06 2203.31 1208.06 2182.23 1224.02 2182.23 1224.02 2172 1197.83 2172"/>
    <polygon class="cls-9" points="1137.17 2211.9 1155.67 2193.39 1155.67 2203.14 1165.91 2203.14 1165.91 2175.93 1138.69 2175.93 1138.69 2186.16 1148.44 2186.16 1129.94 2204.66 1137.17 2211.9"/>
  </g>
  <g>
    <polygon class="cls-8" points="1197.83 2671 1197.83 2692.08 1176.75 2692.08 1176.75 2713.15 1155.68 2713.15 1155.68 2734.23 1134.6 2734.23 1134.6 2760.43 1144.83 2760.43 1144.83 2744.46 1165.91 2744.46 1165.91 2723.39 1186.99 2723.39 1186.99 2702.31 1208.06 2702.31 1208.06 2681.23 1224.02 2681.23 1224.02 2671 1197.83 2671"/>
    <polygon class="cls-9" points="1137.17 2710.9 1155.67 2692.39 1155.67 2702.14 1165.91 2702.14 1165.91 2674.93 1138.69 2674.93 1138.69 2685.16 1148.44 2685.16 1129.94 2703.66 1137.17 2710.9"/>
  </g>
  <g>
    <polygon class="cls-8" points="1817.83 3350 1817.83 3371.08 1796.75 3371.08 1796.75 3392.15 1775.68 3392.15 1775.68 3413.23 1754.6 3413.23 1754.6 3439.43 1764.83 3439.43 1764.83 3423.46 1785.91 3423.46 1785.91 3402.39 1806.99 3402.39 1806.99 3381.31 1828.06 3381.31 1828.06 3360.23 1844.02 3360.23 1844.02 3350 1817.83 3350"/>
    <polygon class="cls-9" points="1757.17 3389.9 1775.67 3371.39 1775.67 3381.14 1785.91 3381.14 1785.91 3353.93 1758.69 3353.93 1758.69 3364.16 1768.44 3364.16 1749.94 3382.66 1757.17 3389.9"/>
  </g>
  <g>
    <polygon class="cls-8" points="3570.83 2141 3570.83 2162.08 3549.75 2162.08 3549.75 2183.15 3528.68 2183.15 3528.68 2204.23 3507.6 2204.23 3507.6 2230.43 3517.83 2230.43 3517.83 2214.46 3538.91 2214.46 3538.91 2193.39 3559.99 2193.39 3559.99 2172.31 3581.06 2172.31 3581.06 2151.23 3597.02 2151.23 3597.02 2141 3570.83 2141"/>
    <polygon class="cls-9" points="3510.17 2180.9 3528.67 2162.39 3528.67 2172.14 3538.91 2172.14 3538.91 2144.93 3511.69 2144.93 3511.69 2155.16 3521.44 2155.16 3502.94 2173.66 3510.17 2180.9"/>
  </g>
  <g>
    <polygon class="cls-8" points="2326.83 1304 2326.83 1325.08 2305.75 1325.08 2305.75 1346.15 2284.68 1346.15 2284.68 1367.23 2263.6 1367.23 2263.6 1393.43 2273.83 1393.43 2273.83 1377.46 2294.91 1377.46 2294.91 1356.39 2315.99 1356.39 2315.99 1335.31 2337.06 1335.31 2337.06 1314.23 2353.02 1314.23 2353.02 1304 2326.83 1304"/>
    <polygon class="cls-9" points="2266.17 1343.9 2284.67 1325.39 2284.67 1335.14 2294.91 1335.14 2294.91 1307.93 2267.69 1307.93 2267.69 1318.16 2277.44 1318.16 2258.94 1336.66 2266.17 1343.9"/>
  </g>
  <g>
    <polygon class="cls-8" points="2425.86 2214 2425.86 2245.21 2394.64 2245.21 2394.64 2276.42 2363.43 2276.42 2363.43 2307.64 2332.22 2307.64 2332.22 2346.43 2347.37 2346.43 2347.37 2322.79 2378.58 2322.79 2378.58 2291.58 2409.8 2291.58 2409.8 2260.36 2441.01 2260.36 2441.01 2229.15 2464.65 2229.15 2464.65 2214 2425.86 2214"/>
    <polygon class="cls-9" points="2336.03 2273.08 2363.43 2245.68 2363.43 2260.12 2378.58 2260.12 2378.58 2219.81 2338.28 2219.81 2338.28 2234.97 2352.71 2234.97 2325.32 2262.36 2336.03 2273.08"/>
  </g>
  <g>
    <polygon class="cls-8" points="541.83 3349 541.83 3370.08 520.75 3370.08 520.75 3391.15 499.68 3391.15 499.68 3412.23 478.6 3412.23 478.6 3438.43 488.83 3438.43 488.83 3422.46 509.91 3422.46 509.91 3401.39 530.99 3401.39 530.99 3380.31 552.06 3380.31 552.06 3359.23 568.02 3359.23 568.02 3349 541.83 3349"/>
    <polygon class="cls-9" points="481.17 3388.9 499.67 3370.39 499.67 3380.14 509.91 3380.14 509.91 3352.93 482.69 3352.93 482.69 3363.16 492.44 3363.16 473.94 3381.66 481.17 3388.9"/>
  </g>
  <g>
    <polygon class="cls-8" points="3438.83 530 3438.83 551.08 3417.75 551.08 3417.75 572.15 3396.68 572.15 3396.68 593.23 3375.6 593.23 3375.6 619.43 3385.83 619.43 3385.83 603.46 3406.91 603.46 3406.91 582.39 3427.99 582.39 3427.99 561.31 3449.06 561.31 3449.06 540.23 3465.02 540.23 3465.02 530 3438.83 530"/>
    <polygon class="cls-9" points="3378.17 569.9 3396.67 551.39 3396.67 561.14 3406.91 561.14 3406.91 533.93 3379.69 533.93 3379.69 544.16 3389.44 544.16 3370.94 562.66 3378.17 569.9"/>
  </g>
  <text class="cls-10" transform="translate(2238.44 1056.1)"><tspan x="0" y="0">Commons</tspan></text>
  <line class="cls-1" x1="393" y1="1953.75" x2="648" y2="1953.75"/>
</svg>