<?xml version="1.0" encoding="UTF-8"?>
<svg id="Layer_2" data-name="Layer 2" xmlns="http://www.w3.org/2000/svg" viewBox="0 0 58.18 79.26">
  <defs>
    <style>
      .cls-1 {
        fill: #461d7c;
        stroke-width: 0px;
      }
    </style>
  </defs>
  <g id="Object">
    <g>
      <path class="cls-1" d="m26.54.31h-1.38v21.61c0,3.39-2.47,6.21-5.7,6.76V.31h-6.88v28.37c-3.24-.55-5.7-3.37-5.7-6.76V.31h-1.38C2.46.31,0,2.77,0,5.81v16.1c0,7.2,5.54,13.09,12.58,13.69v43.66h6.88v-43.66c7.04-.59,12.58-6.49,12.58-13.69V5.81c0-3.04-2.46-5.5-5.5-5.5Z"/>
      <path class="cls-1" d="m58.11,29.71V3.97c0-3.36-3.92-5.2-6.5-3.05-5.17,4.3-8.15,10.67-8.15,17.38v21.47c0,4.99,3.31,9.21,7.85,10.58v28.89h6.88V29.71h-.07Z"/>
    </g>
  </g>
</svg>