<?xml version="1.0" encoding="UTF-8"?>
<svg id="Layer_2" data-name="Layer 2" xmlns="http://www.w3.org/2000/svg" viewBox="0 0 112.43 65.34">
  <defs>
    <style>
      .cls-1 {
        fill: #461d7c;
        stroke-width: 0px;
      }
    </style>
  </defs>
  <g id="Layer_1-2" data-name="Layer 1">
    <path class="cls-1" d="m15.41,35.32c-2.05.44-3.6,2.26-3.6,4.45,0,1,.33,1.97.93,2.75l-1.9,11.24c-.08.48.05.97.37,1.35.31.37.78.59,1.27.59h7.77c.48,0,.93-.21,1.25-.57.31-.36.46-.84.39-1.32l-1.62-11.72c.42-.7.64-1.5.64-2.32,0-1.64-.88-3.08-2.18-3.88v-6.08l10.24,4.44v25.42c0,3.13,2.55,5.68,5.68,5.68h46.72c3.13,0,5.68-2.55,5.68-5.68v-26.97l24.39-10.58c.63-.27,1.02-.9,1-1.59-.03-.68-.47-1.28-1.12-1.5L55.84.09c-.36-.12-.76-.12-1.12.02C35.73,7.3,4.54,18.76,1.64,18.94c-.78,0-1.45.55-1.61,1.32-.16.77.24,1.54.96,1.86l14.42,6.25v6.95Zm-.98,17.05l1.71-10.11c.1-.58-.12-1.17-.57-1.55-.28-.24-.44-.58-.44-.95,0-.68.55-1.23,1.23-1.23s1.23.55,1.23,1.23c0,.38-.17.65-.31.81-.31.36-.46.84-.39,1.31l1.45,10.48h-3.91Zm69.29,7.29c0,1.31-1.06,2.37-2.37,2.37h-46.72c-1.31,0-2.37-1.06-2.37-2.37v-23.98l23.28,10.1c.21.09.43.14.66.14s.45-.05.66-.14l26.86-11.65v25.53ZM51.13,22.12c0-.77,1.98-1.9,5.08-1.9s5.08,1.12,5.08,1.9-1.98,1.9-5.08,1.9-5.08-1.12-5.08-1.9Z"/>
  </g>
</svg>